<svg width="18" height="20" viewBox="0 0 18 20" fill="none" xmlns="http://www.w3.org/2000/svg">
<path d="M2.52386 18.1007L1 1H17.7442L16.2183 18.098L9.36192 20L2.52386 18.1007Z" fill="#E44F26"/>
<path d="M9.37109 18.5474L14.9118 17.0104L16.2153 2.39941H9.37109V18.5474Z" fill="#F1662A"/>
<path d="M9.37111 8.74026H6.59736L6.40612 6.59258H9.37111V4.49512H9.36365H4.11523L4.16542 5.05833L4.68016 10.8377H9.37111V8.74026Z" fill="#EBEBEB"/>
<path d="M9.3708 14.1871L9.36131 14.1898L7.02702 13.5594L6.87782 11.8867H5.74323H4.77344L5.06709 15.1791L9.36131 16.3721L9.3708 16.3694V14.1871Z" fill="#EBEBEB"/>
<path d="M9.36328 8.73926V10.8367H11.9444L11.7016 13.5571L9.36328 14.1882V16.3705L13.6609 15.1782L13.6921 14.824L14.1844 9.30247L14.236 8.73926H13.6711H9.36328Z" fill="white"/>
<path d="M9.36328 4.49512V5.79797V6.58783V6.59258H14.4198H14.4266L14.4686 6.12165L14.5642 5.05833L14.6144 4.49512H9.36328Z" fill="white"/>
</svg>
