<svg width="49" height="49" viewBox="0 0 49 49" fill="none" xmlns="http://www.w3.org/2000/svg">
<mask id="mask0_1167_668" style="mask-type:luminance" maskUnits="userSpaceOnUse" x="0" y="0" width="49" height="49">
<path d="M48.0147 22.7247L22.7246 0L-0.000108719 25.2901L25.29 48.0148L48.0147 22.7247Z" fill="white"/>
</mask>
<g mask="url(#mask0_1167_668)">
<path d="M24.0067 24.007C29.5119 39.8282 27.4191 47.9006 25.0751 47.6375C22.8227 47.2724 20.3709 39.5399 24.0067 24.007C7.9003 29.6245 -0.0804686 27.4297 0.467858 24.9734C1.02653 22.7107 8.76939 20.4525 24.0067 24.007C18.7158 8.56261 20.5234 0.602528 22.7447 0.386766C24.9764 0.364612 27.6218 8.08678 24.0067 24.007C38.4933 18.9614 46.4327 20.3818 47.4126 22.3681C48.6067 24.7313 40.9156 27.9576 24.0067 24.007Z" fill="#6EDABB"/>
</g>
</svg>
