<svg width="18" height="20" viewBox="0 0 18 20" fill="none" xmlns="http://www.w3.org/2000/svg">
<path d="M9.00195 9.49903C9.00195 8.11839 10.1212 6.99902 11.5019 6.99902C12.8826 6.99902 14.0019 8.11839 14.0019 9.49903C14.0019 10.8798 12.8826 11.999 11.5019 11.999C10.1212 11.999 9.00195 10.8798 9.00195 9.49903Z" fill="#1ABCFE"/>
<path d="M4 14.4999C4 13.1193 5.11927 12 6.5 12H9V14.4999C9 15.8806 7.88074 16.9999 6.5 16.9999C5.11927 16.9999 4 15.8806 4 14.4999Z" fill="#0ACF83"/>
<path d="M9.00195 2V6.99991H11.5019C12.8826 6.99991 14.0019 5.88064 14.0019 4.5C14.0019 3.11928 12.8826 2 11.5019 2H9.00195Z" fill="#FF7262"/>
<path d="M4 4.5C4 5.88064 5.11927 6.99991 6.5 6.99991H9V2H6.5C5.11927 2 4 3.11928 4 4.5Z" fill="#F24E1E"/>
<path d="M4 9.49903C4 10.8798 5.11927 11.999 6.5 11.999H9V6.99902H6.5C5.11927 6.99902 4 8.11839 4 9.49903Z" fill="#A259FF"/>
</svg>
