<svg width="18" height="20" viewBox="0 0 18 20" fill="none" xmlns="http://www.w3.org/2000/svg">
<g clip-path="url(#clip0_1084_929)">
<path d="M1.63756 18.3847L0 0H18L16.3603 18.3818L8.98906 20.4266L1.63756 18.3847Z" fill="#1572B6"/>
<path d="M9 18.8644L14.9567 17.212L16.3581 1.50391H9V18.8644Z" fill="#33A9DC"/>
<path d="M9 8.16351H11.982L12.1876 5.85457H9V3.59961H9.00802H14.6505L14.5966 4.20438L14.0432 10.4185H9V8.16351Z" fill="white"/>
<path d="M9.01287 14.0197L9.00267 14.0226L6.49311 13.3442L6.33271 11.5459H5.11292H4.07031L4.38601 15.0863L9.00194 16.3688L9.01287 16.3659V14.0197Z" fill="#EBEBEB"/>
<path d="M11.7903 10.3232L11.5191 13.3427L9.00586 14.0212V16.3673L13.6254 15.0863L13.6597 14.7055L14.0512 10.3232H11.7903Z" fill="white"/>
<path d="M9.00674 3.59961V5.00029V5.84873V5.85457H3.57058H3.56329L3.51808 5.34755L3.41528 4.20438L3.36133 3.59961H9.00674Z" fill="#EBEBEB"/>
<path d="M8.99975 8.16406V9.56475V10.4132V10.419H6.52883H6.52154L6.47634 9.912L6.37427 8.76884L6.32031 8.16406H8.99975Z" fill="#EBEBEB"/>
</g>
<defs>
<clipPath id="clip0_1084_929">
<rect width="18" height="20" fill="white"/>
</clipPath>
</defs>
</svg>
